<svg xmlns="http://www.w3.org/2000/svg" display="none">
<!-- CN -->
<symbol id="cn" viewBox="0 0 800 800">
    <path fill="#de2910" d="M0 0h800v800H0z" />
    <path d="M314 163L130 297l70-217 71 217L86 163h228zm56-109l70 29-74 18 50-58-7 76-39-65zm92 70l53 55-75-13 69-34-36 67-11-75zm17 116l26 72-63-43 76-3-60 47 21-73zm-65 83l-3 76-42-64 71 27-73 20 47-59z" fill="#ffde00" />
</symbol>
<!-- US -->
<symbol id="us" viewBox="0 0 806 806">
    <path fill="#bd3d44" d="M0 0h806v806H0z" />
    <path d="M806 682v62H0v-62h806zM0 558h806v62H0v-62zm0-124h806v62H0v-62zm0-124h806v62H0v-62zm0-124h806v62H0v-62zM0 62h806v62H0V62z" fill="#fff" />
    <path fill="#192f5d" d="M0 0h403v434H0z" />
    <path d="M54 383l-6-17-5 17H25l14 11-5 17 14-11 15 11-6-17 15-11H54zm102 0l-6-17-5 17h-18l14 11-5 17 14-11 15 11-6-17 15-11h-18zm102 0l-5-17-6 17h-18l15 11-6 17 15-11 14 11-5-17 14-11h-18zm102 0l-5-17-6 17h-18l15 11-6 17 15-11 14 11-5-17 14-11h-18zM99 322l-5 18H76l14 10-5 17 14-10 15 10-6-17 15-10h-18l-6-18zm102 0l-5 18h-18l14 10-5 17 14-10 15 10-5-17 14-10h-18l-6-18zm108 18l-5-18-6 18h-18l15 10-6 17 15-10 14 10-5-17 14-10h-18zM54 296l-6-17-5 17H25l14 11-5 17 14-10 15 10-6-17 15-11H54zm306 0l-5-17-6 17h-18l15 11-6 17 15-10 14 10-5-17 14-11h-18zm-102 0l-5-17-6 17h-18l14 11-5 17 15-10 14 10-5-17 14-11h-18zm-102 0l-6-17-5 17h-18l14 11-5 17 14-10 15 10-5-17 14-11h-18zm153-43l-5-17-6 17h-18l15 11-6 17 15-11 14 11-5-17 14-11h-18zm-102 0l-6-17-5 17h-18l14 11-5 17 14-11 15 11-5-17 14-11h-18zm-102 0l-6-17-5 17H76l14 11-5 17 14-11 15 11-6-17 15-11h-18zm-51-43l-6-17-5 17H25l14 10-5 18 14-11 15 11-6-18 15-10H54zm102 0l-6-17-5 17h-18l14 10-5 18 14-11 15 11-6-18 15-10h-18zm102 0l-5-17-6 17h-18l15 10-6 18 15-11 14 11-5-18 14-10h-18zm102 0l-5-17-6 17h-18l15 10-6 18 15-11 14 11-5-18 14-10h-18zM99 149l-5 17H76l14 11-5 17 14-10 15 10-6-17 15-11h-18l-6-17zm210 17l-5-17-6 17h-18l15 11-6 17 15-10 14 10-5-17 14-11h-18zm-108-17l-5 17h-18l14 11-5 17 14-10 15 10-5-17 14-11h-18l-6-17zM54 123l-6-17-5 17H25l14 11-5 17 14-11 15 11-6-17 15-11H54zm102 0l-6-17-5 17h-18l14 11-5 17 14-11 15 11-6-17 15-11h-18zm97-17l-6 17h-18l15 11-6 17 15-11 14 11-5-17 14-11h-18l-5-17zm107 17l-5-17-6 17h-18l15 11-6 17 15-11 14 11-5-17 14-11h-18zM105 80l-6-17-5 17H76l14 10-5 18 14-11 15 11-6-18 15-10h-18zm102 0l-6-17-5 17h-18l14 10-5 18 14-11 15 11-5-18 14-10h-18zm102 0l-5-17-6 17h-18l15 10-6 18 15-11 14 11-5-18 14-10h-18zM54 37l-6-18-5 18H25l14 10-5 17 14-10 15 10-6-17 15-10H54zm102 0l-6-18-5 18h-18l14 10-5 17 14-10 15 10-6-17 15-10h-18zm102 0l-5-18-6 18h-18l15 10-6 17 15-10 14 10-5-17 14-10h-18zm102 0l-5-18-6 18h-18l15 10-6 17 15-10 14 10-5-17 14-10h-18z"
    fill="#fff" />
</symbol>
<!-- SE -->
<symbol id="se" viewBox="0 0 800 800">
    <path d="M0 480h209v320H0V480zm369 0h431v320H369V480zm431-160H369V0h431v320zM0 320V0h209v320H0z" fill="#006aa7" />
    <path d="M209 0h160v320h431v160H369v320H209V480H0V320h209V0z" fill="#fecc00" />
</symbol>

</svg>